<?xml version="1.0" encoding="UTF-8" standalone="no"?>
<!-- Created with Inkscape (http://www.inkscape.org/) -->

<svg
   xmlns:dc="http://purl.org/dc/elements/1.1/"
   xmlns:cc="http://creativecommons.org/ns#"
   xmlns:rdf="http://www.w3.org/1999/02/22-rdf-syntax-ns#"
   xmlns:svg="http://www.w3.org/2000/svg"
   xmlns="http://www.w3.org/2000/svg"
   xmlns:sodipodi="http://sodipodi.sourceforge.net/DTD/sodipodi-0.dtd"
   xmlns:inkscape="http://www.inkscape.org/namespaces/inkscape"
   width="83.938255mm"
   height="93.036438mm"
   viewBox="0 0 83.938255 93.036438"
   version="1.1"
   id="svg3535"
   inkscape:version="0.92.3 (2405546, 2018-03-11)"
   sodipodi:docname="logo-white.svg">
  <defs
     id="defs3529" />
  <sodipodi:namedview
     id="base"
     pagecolor="#ffffff"
     bordercolor="#666666"
     borderopacity="1.0"
     inkscape:pageopacity="0.0"
     inkscape:pageshadow="2"
     inkscape:zoom="0.35"
     inkscape:cx="-629.94797"
     inkscape:cy="201.53116"
     inkscape:document-units="mm"
     inkscape:current-layer="layer1"
     showgrid="false"
     inkscape:window-width="1366"
     inkscape:window-height="720"
     inkscape:window-x="0"
     inkscape:window-y="24"
     inkscape:window-maximized="1" />
  <metadata
     id="metadata3532">
    <rdf:RDF>
      <cc:Work
         rdf:about="">
        <dc:format>image/svg+xml</dc:format>
        <dc:type
           rdf:resource="http://purl.org/dc/dcmitype/StillImage" />
        <dc:title />
      </cc:Work>
    </rdf:RDF>
  </metadata>
  <g
     inkscape:label="Layer 1"
     inkscape:groupmode="layer"
     id="layer1"
     transform="translate(-85.786828,-109.11869)">
    <path
       style="clip-rule:evenodd;fill:#ffffff;fill-opacity:1;fill-rule:evenodd;stroke-width:0.12003303;image-rendering:optimizeQuality;shape-rendering:geometricPrecision;text-rendering:geometricPrecision"
       d="M 187.49219 0 L 187.49219 4.5605469 C 187.01154 6.7213406 187.25412 10.081966 187.36523 15.603516 L 187.36523 25.447266 L 222.29492 25.806641 C 227.93655 25.568908 233.45773 31.447921 233.09766 39.25 C 233.09766 39.25 232.49838 52.332863 232.37891 61.935547 C 232.25229 70.817928 232.25226 71.538876 237.90039 76.820312 C 255.30519 92.784659 270.18789 106.70788 287.47266 123.15234 L 295.27539 130.95508 C 295.402 131.0764 295.51344 131.31396 295.63477 131.43555 L 301.87695 137.67773 C 303.07748 138.99819 304.15757 141.03906 306.31836 141.03906 C 310.39961 141.03906 317.24023 127.47397 317.24023 122.3125 L 317.24609 122.3125 C 317.24609 115.35057 313.52687 111.51027 308.60547 106.70898 L 307.76562 105.98828 C 298.52321 97.585976 288.92015 87.264755 279.4375 77.662109 C 274.63633 72.740522 270.07461 68.178435 265.27344 63.617188 L 262.75195 61.097656 C 260.23146 58.216938 259.15234 57.856477 259.15234 52.455078 L 259.15234 29.289062 C 259.15234 25.328193 259.39008 22.085834 259.15234 19.205078 C 258.55181 11.162886 251.23031 0.60046875 242.58789 0.48046875 L 187.49219 0 z M 129.38867 0.001953125 L 74.294922 0.48242188 C 65.652465 0.60374471 58.330544 11.164801 57.730469 19.207031 C 57.492736 22.087749 57.730469 25.328004 57.730469 29.289062 C 57.730469 36.611103 57.603855 45.133113 57.730469 52.455078 C 57.730469 57.85659 56.648906 58.2169 54.128906 61.097656 L 50.287109 64.939453 C 48.246735 66.979831 39.244642 76.581807 37.324219 77.662109 L 37.330078 77.662109 L 57.615234 96.505859 L 78.861328 76.820312 C 84.502764 71.538876 84.623982 70.819881 84.503906 61.9375 C 84.37767 52.334817 83.783203 39.25 83.783203 39.25 C 83.42377 30.487619 89.664501 25.806641 94.585938 25.806641 L 129.51562 25.447266 L 129.38867 0.001953125 z M 10.929688 58.9375 C 6.8484327 58.9375 0.005859375 72.619776 0.005859375 77.78125 L 0 77.78125 C 0 84.743178 3.7211835 88.58434 8.6425781 93.265625 L 9.4824219 94.105469 C 18.724924 102.50781 28.326841 112.83099 37.689453 122.43359 C 42.490629 127.35518 47.173377 131.91621 51.974609 136.35742 L 54.494141 138.99805 C 57.014632 141.87876 58.095703 142.23923 58.095703 147.64062 C 57.969089 154.96267 58.095703 163.48468 58.095703 170.80664 C 58.095703 174.76751 57.857971 178.00885 58.095703 180.76953 C 58.696194 188.81176 66.0177 199.49414 74.660156 199.49414 L 129.75586 200.0957 L 129.75586 195.41406 C 130.11529 193.37368 129.99198 190.01175 129.88086 184.49023 L 129.88086 174.64844 L 94.951172 174.16797 C 89.309584 174.5274 83.7884 168.64587 84.148438 160.84375 C 84.148438 160.84375 84.749708 147.64081 84.869141 138.1582 C 84.995755 129.27578 84.868112 128.55487 79.226562 123.27344 C 61.941649 107.30902 47.0582 93.384886 29.773438 76.820312 L 21.970703 69.017578 C 21.84424 68.896255 21.732764 68.779904 21.611328 68.658203 L 15.371094 62.417969 C 14.170542 60.977629 12.970564 58.9375 10.929688 58.9375 z M 259.63086 103.58789 L 238.38477 123.27344 C 232.62322 128.55487 232.62403 129.27578 232.74414 138.1582 C 232.87075 147.64081 233.46289 160.84375 233.46289 160.84375 C 233.82232 169.60613 227.58163 174.16797 222.66016 174.16797 L 187.73047 174.64844 L 187.85742 200.0957 L 242.95312 199.49609 C 251.59554 199.49609 258.9175 188.81176 259.51758 180.76953 C 259.75531 178.00874 259.51758 174.76774 259.51758 170.80664 C 259.51758 163.48468 259.64419 154.96267 259.51758 147.64062 C 259.51758 142.23915 260.59865 141.87884 263.11914 138.99805 L 266.95898 135.1582 C 268.99989 133.11783 278.00334 123.5139 279.92383 122.43359 L 279.91602 122.43359 L 259.63086 103.58789 z M 68.572266 247.00391 C 60.571913 247.00391 53.23786 250.42164 48.154297 255.92188 C 42.987399 261.42215 39.904297 268.75549 39.904297 277.00586 C 39.904297 285.25623 42.987399 292.67295 48.154297 298.08984 C 53.23786 303.50674 60.571913 307.00781 68.572266 307.00781 C 76.239264 307.00781 83.573371 303.50674 88.490234 298.08984 C 93.657151 292.67295 96.90625 285.25623 96.90625 277.00586 C 96.90625 268.75549 93.657151 261.42215 88.490234 255.92188 C 83.573371 250.42164 76.239264 247.00391 68.572266 247.00391 z M 237.16797 247.00391 C 229.16758 247.00391 221.83358 250.42164 216.75 255.92188 C 211.58312 261.42215 208.5 268.75549 208.5 277.00586 C 208.5 285.25623 211.58312 292.67295 216.75 298.08984 C 221.83358 303.50674 229.16758 307.00781 237.16797 307.00781 C 244.83497 307.00781 252.16708 303.50674 257.08398 298.08984 C 262.2509 292.67295 265.50195 285.25623 265.50195 277.00586 C 265.50195 268.75549 262.2509 261.42215 257.08398 255.92188 C 252.16708 250.42164 244.83497 247.00391 237.16797 247.00391 z M 4.6542969 248.67188 C 2.1541847 248.67188 0.0703125 250.67049 0.0703125 253.25391 L 0.0703125 302.42383 C 0.0703125 304.92395 2.1541847 307.00781 4.6542969 307.00781 C 7.2377476 307.00781 9.3203125 304.92395 9.3203125 302.42383 L 9.3203125 284.33984 L 19.572266 284.33984 C 29.489376 284.33984 37.488281 276.33832 37.488281 266.58789 C 37.488281 256.67079 29.489376 248.67188 19.572266 248.67188 L 4.7382812 248.67188 L 4.6542969 248.67188 z M 163.32031 248.67188 C 160.73685 248.67188 158.73633 250.67049 158.73633 253.25391 L 158.73633 302.42383 C 158.73633 304.92395 160.73685 307.00781 163.32031 307.00781 L 173.1543 307.00781 C 189.23838 307.00781 202.23828 293.92324 202.23828 277.75586 C 202.23828 261.75512 189.23838 248.67188 173.1543 248.67188 L 163.32031 248.67188 z M 277.7793 249.08789 C 275.19584 249.08789 273.19531 251.25509 273.19531 253.67188 L 273.19531 302.42383 C 273.19531 304.92395 275.19584 307.00781 277.7793 307.00781 C 280.36276 307.00781 282.36133 304.92395 282.36133 302.42383 L 282.36133 290.58984 L 291.0293 281.75586 L 309.0293 305.33984 C 309.94602 306.42325 311.19722 307.00781 312.44727 307.00781 C 313.53067 307.00781 314.5299 306.67388 315.36328 305.92383 C 317.36337 304.34043 317.69603 301.42456 316.0293 299.50781 L 297.5293 275.25586 L 315.86328 257.00586 C 317.61335 255.17245 317.61335 252.25398 315.86328 250.50391 C 314.02987 248.6705 311.19669 248.6705 309.36328 250.50391 L 282.36133 277.58984 L 282.36133 253.67188 C 282.36133 251.25509 280.36276 249.08789 277.7793 249.08789 z M 109.38867 249.25391 C 108.51071 249.28272 107.62308 249.55662 106.8418 250.08789 C 105.59172 251.00462 104.92643 252.50516 105.00977 253.92188 L 105.00977 254.00586 L 105.00977 302.42383 C 105.00977 304.92395 107.00838 307.00781 109.5918 307.00781 C 112.00858 307.00781 114.0918 304.92395 114.0918 302.42383 L 114.0918 267.83789 L 140.75977 304.83984 C 140.84292 305.00652 141.01087 305.1732 141.17773 305.33984 C 142.01112 306.33991 143.26033 307.00781 144.59375 307.00781 C 147.09383 307.00781 149.17773 304.92395 149.17773 302.42383 L 149.17773 254.00391 C 149.17773 251.58713 147.09383 249.50391 144.59375 249.50391 C 142.09363 249.50391 140.09375 251.58713 140.09375 254.00391 L 140.09375 288.33984 L 113.17578 251.08789 C 112.29031 249.83784 110.85195 249.20588 109.38867 249.25391 z M 68.572266 256.50586 C 73.572467 256.50586 78.240089 258.67171 81.740234 262.42188 C 85.157078 266.0887 87.40625 271.33895 87.40625 277.00586 C 87.40625 282.67277 85.157078 287.92238 81.740234 291.50586 C 78.240089 295.25602 73.572467 297.50586 68.572266 297.50586 C 63.238672 297.50586 58.572448 295.25602 55.072266 291.50586 C 51.572117 287.92238 49.404297 282.67277 49.404297 277.00586 C 49.404297 271.33895 51.572117 266.0887 55.072266 262.42188 C 58.572448 258.67171 63.238672 256.50586 68.572266 256.50586 z M 237.16797 256.50586 C 242.16817 256.50586 246.83384 258.67171 250.33398 262.42188 C 253.75083 266.0887 256.00195 271.33895 256.00195 277.00586 C 256.00195 282.67277 253.75083 287.92238 250.33398 291.50586 C 246.83384 295.25602 242.16817 297.50586 237.16797 297.50586 C 231.83438 297.50586 227.16616 295.25602 223.66602 291.50586 C 220.16587 287.92238 218 282.67277 218 277.00586 C 218 271.33895 220.16587 266.0887 223.66602 262.42188 C 227.16616 258.67171 231.83438 256.50586 237.16797 256.50586 z M 9.3203125 257.92188 L 19.572266 257.92188 C 24.405813 257.92188 28.154946 261.75433 28.238281 266.58789 C 28.154943 271.25478 24.405813 275.08984 19.572266 275.08984 L 9.3203125 275.08984 L 9.3203125 257.92188 z M 167.98633 257.92188 L 173.1543 257.92188 C 184.1548 257.92188 192.98828 266.83869 192.98828 277.75586 C 192.98828 288.83966 184.1548 297.67252 173.1543 297.75586 L 167.98633 297.75586 L 167.98633 257.92188 z M 70.962891 322.56641 C 67.022254 322.56641 63.870231 323.88579 61.505859 326.52539 C 59.153985 329.15246 57.978516 332.68083 57.978516 337.10938 C 57.978516 341.5379 59.153985 345.06629 61.505859 347.69336 C 63.870231 350.32046 67.022254 351.63281 70.962891 351.63281 C 74.891029 351.63281 78.030938 350.32046 80.382812 347.69336 C 82.734687 345.05376 83.910156 341.52537 83.910156 337.10938 C 83.910156 332.68083 82.734687 329.15246 80.382812 326.52539 C 78.030938 323.88579 74.891029 322.56641 70.962891 322.56641 z M 107.00977 322.56641 C 102.63128 322.56641 99.203539 323.84953 96.726562 326.41406 C 94.262084 328.9661 93.03125 332.53073 93.03125 337.10938 C 93.03125 341.6755 94.262084 345.24211 96.726562 347.80664 C 99.203539 350.35868 102.63128 351.63281 107.00977 351.63281 C 109.01135 351.63281 110.8943 351.37111 112.6582 350.8457 C 114.42211 350.30778 116.03634 349.51881 117.5 348.48047 L 117.5 336.45312 L 107.55469 336.45312 L 107.55469 339.56836 L 113.74805 339.56836 L 113.74805 347.0918 C 112.90987 347.57976 111.9649 347.94403 110.91406 348.18164 C 109.86323 348.4069 108.66864 348.51953 107.33008 348.51953 C 103.90235 348.51953 101.32402 347.56247 99.597656 345.64844 C 97.883792 343.73441 97.027344 340.88737 97.027344 337.10938 C 97.027344 333.31884 97.883792 330.46674 99.597656 328.55273 C 101.32402 326.63871 103.90235 325.68164 107.33008 325.68164 C 109.06896 325.68164 110.72647 325.98157 112.30273 326.58203 C 113.87897 327.18252 115.36646 328.07719 116.76758 329.26562 L 116.76758 325.23242 C 115.37898 324.35673 113.86031 323.69256 112.20898 323.24219 C 110.57018 322.79184 108.83621 322.56641 107.00977 322.56641 z M 0.068359375 323.07422 L 0.068359375 351.08984 L 3.859375 351.08984 L 3.859375 339.83008 L 8.6269531 339.83008 C 11.766952 339.83008 14.137006 339.12456 15.738281 337.71094 C 17.352066 336.29732 18.158203 334.20806 18.158203 331.44336 C 18.158203 328.70368 17.352066 326.62651 15.738281 325.21289 C 14.137006 323.78675 11.766952 323.07422 8.6269531 323.07422 L 0.068359375 323.07422 z M 28.066406 323.07422 L 28.066406 351.08984 L 31.857422 351.08984 L 31.857422 339.24805 L 35.984375 339.24805 C 37.485571 339.24805 38.668064 339.55498 39.53125 340.16797 C 40.406949 340.78096 41.30864 342.02583 42.234375 343.90234 L 45.818359 351.08984 L 49.890625 351.08984 L 46.042969 343.43359 C 45.267352 341.85735 44.492414 340.61946 43.716797 339.71875 C 42.95369 338.81801 42.16471 338.23028 41.351562 337.95508 C 42.915307 337.50471 44.104821 336.69664 44.917969 335.5332 C 45.743627 334.36979 46.15625 332.90648 46.15625 331.14258 C 46.15625 328.44042 45.367273 326.42059 43.791016 325.08203 C 42.214761 323.74347 39.825597 323.07422 36.623047 323.07422 L 28.066406 323.07422 z M 129.24609 323.07422 L 129.24609 351.08984 L 133.03711 351.08984 L 133.03711 339.24805 L 137.16602 339.24805 C 138.66719 339.24805 139.8497 339.55498 140.71289 340.16797 C 141.58858 340.78096 142.48833 342.02583 143.41406 343.90234 L 146.99805 351.08984 L 151.07031 351.08984 L 147.22461 343.43359 C 146.44897 341.85735 145.67209 340.61946 144.89648 339.71875 C 144.13337 338.81801 143.34636 338.23028 142.5332 337.95508 C 144.09697 337.50471 145.28453 336.69664 146.09766 335.5332 C 146.92333 334.36979 147.33594 332.90648 147.33594 331.14258 C 147.33594 328.44042 146.54892 326.42059 144.97266 325.08203 C 143.39639 323.74347 141.00723 323.07422 137.80469 323.07422 L 129.24609 323.07422 z M 166.41992 323.07422 L 155.72461 351.08984 L 159.7207 351.08984 L 162.27344 343.90234 L 174.90234 343.90234 L 177.45508 351.08984 L 181.39453 351.08984 L 170.7168 323.07422 L 166.41992 323.07422 z M 190.27148 323.07422 L 190.27148 351.08984 L 193.94922 351.08984 L 193.94922 326.48828 L 201.17383 345.70312 L 204.98242 345.70312 L 212.20703 326.48828 L 212.20703 351.08984 L 215.9043 351.08984 L 215.9043 323.07422 L 210.25586 323.07422 L 203.06836 342.13867 L 195.91797 323.07422 L 190.27148 323.07422 z M 228.25 323.07422 L 228.25 351.08984 L 231.92969 351.08984 L 231.92969 326.48828 L 239.15234 345.70312 L 242.96289 345.70312 L 250.1875 326.48828 L 250.1875 351.08984 L 253.88477 351.08984 L 253.88477 323.07422 L 248.23633 323.07422 L 241.04883 342.13867 L 233.89844 323.07422 L 228.25 323.07422 z M 266.23047 323.07422 L 266.23047 351.08984 L 284.2832 351.08984 L 284.2832 347.90039 L 270.02148 347.90039 L 270.02148 337.74805 L 283.36328 337.74805 L 283.36328 334.55859 L 270.02148 334.55859 L 270.02148 326.26367 L 283.94531 326.26367 L 283.94531 323.07422 L 266.23047 323.07422 z M 295.35352 323.07422 L 295.35352 351.08984 L 299.14453 351.08984 L 299.14453 339.24805 L 303.27344 339.24805 C 304.77462 339.24805 305.95712 339.55498 306.82031 340.16797 C 307.696 340.78096 308.59573 342.02583 309.52148 343.90234 L 313.10547 351.08984 L 317.17773 351.08984 L 313.33203 343.43359 C 312.55642 341.85735 311.77954 340.61946 311.00391 339.71875 C 310.24079 338.81801 309.45375 338.23028 308.64062 337.95508 C 310.20437 337.50471 311.39195 336.69664 312.20508 335.5332 C 313.03075 334.36979 313.44336 332.90648 313.44336 331.14258 C 313.44336 328.44042 312.65634 326.42059 311.08008 325.08203 C 309.50384 323.74347 307.11273 323.07422 303.91016 323.07422 L 295.35352 323.07422 z M 70.962891 325.64453 C 73.715092 325.64453 75.892881 326.67103 77.494141 328.72266 C 79.107923 330.77428 79.914062 333.56904 79.914062 337.10938 C 79.914062 340.63716 79.107923 343.42686 77.494141 345.47852 C 75.892881 347.53014 73.715092 348.55664 70.962891 348.55664 C 68.210714 348.55664 66.020837 347.53014 64.394531 345.47852 C 62.780749 343.42686 61.974609 340.63716 61.974609 337.10938 C 61.974609 333.56904 62.780749 330.77428 64.394531 328.72266 C 66.020837 326.67103 68.210714 325.64453 70.962891 325.64453 z M 3.859375 326.18945 L 8.6269531 326.18945 C 10.390856 326.18945 11.753529 326.64536 12.716797 327.55859 C 13.680062 328.4718 14.162109 329.76701 14.162109 331.44336 C 14.162109 333.1322 13.680062 334.43247 12.716797 335.3457 C 11.753529 336.25891 10.390856 336.71484 8.6269531 336.71484 L 3.859375 336.71484 L 3.859375 326.18945 z M 31.857422 326.18945 L 36.623047 326.18945 C 38.449501 326.18945 39.826216 326.60714 40.751953 327.44531 C 41.690201 328.27096 42.158203 329.50377 42.158203 331.14258 C 42.158203 332.78138 41.690201 334.02628 40.751953 334.87695 C 39.826216 335.71513 38.449501 336.13477 36.623047 336.13477 L 31.857422 336.13477 L 31.857422 326.18945 z M 133.03711 326.18945 L 137.80469 326.18945 C 139.63116 326.18945 141.00591 326.60714 141.93164 327.44531 C 142.86987 328.27096 143.33984 329.50377 143.33984 331.14258 C 143.33984 332.78138 142.86987 334.02628 141.93164 334.87695 C 141.00591 335.71513 139.63116 336.13477 137.80469 336.13477 L 133.03711 336.13477 L 133.03711 326.18945 z M 299.14453 326.18945 L 303.91016 326.18945 C 305.73663 326.18945 307.11333 326.60714 308.03906 327.44531 C 308.97732 328.27096 309.44727 329.50377 309.44727 331.14258 C 309.44727 332.78138 308.97732 334.02628 308.03906 334.87695 C 307.11333 335.71513 305.73663 336.13477 303.91016 336.13477 L 299.14453 336.13477 L 299.14453 326.18945 z M 168.56055 326.80859 L 173.7207 340.75 L 163.41797 340.75 L 168.56055 326.80859 z "
       transform="matrix(0.26458333,0,0,0.26458333,85.786828,109.11869)"
       id="path992" />
  </g>
</svg>
