<?xml version="1.0" encoding="UTF-8" standalone="no"?>
<!-- Created with Inkscape (http://www.inkscape.org/) -->

<svg
   xmlns:dc="http://purl.org/dc/elements/1.1/"
   xmlns:cc="http://creativecommons.org/ns#"
   xmlns:rdf="http://www.w3.org/1999/02/22-rdf-syntax-ns#"
   xmlns:svg="http://www.w3.org/2000/svg"
   xmlns="http://www.w3.org/2000/svg"
   xmlns:sodipodi="http://sodipodi.sourceforge.net/DTD/sodipodi-0.dtd"
   xmlns:inkscape="http://www.inkscape.org/namespaces/inkscape"
   width="182.74899mm"
   height="13.920414mm"
   viewBox="0 0 182.74899 13.920414"
   version="1.1"
   id="svg1736"
   inkscape:version="0.92.3 (2405546, 2018-03-11)"
   sodipodi:docname="wave-bottom.svg">
  <defs
     id="defs1730" />
  <sodipodi:namedview
     id="base"
     pagecolor="#ffffff"
     bordercolor="#666666"
     borderopacity="1.0"
     inkscape:pageopacity="0.0"
     inkscape:pageshadow="2"
     inkscape:zoom="0.35"
     inkscape:cx="136.78101"
     inkscape:cy="-125.12228"
     inkscape:document-units="mm"
     inkscape:current-layer="layer1"
     showgrid="false"
     inkscape:window-width="1366"
     inkscape:window-height="720"
     inkscape:window-x="0"
     inkscape:window-y="24"
     inkscape:window-maximized="1" />
  <metadata
     id="metadata1733">
    <rdf:RDF>
      <cc:Work
         rdf:about="">
        <dc:format>image/svg+xml</dc:format>
        <dc:type
           rdf:resource="http://purl.org/dc/dcmitype/StillImage" />
        <dc:title></dc:title>
      </cc:Work>
    </rdf:RDF>
  </metadata>
  <g
     inkscape:label="Layer 1"
     inkscape:groupmode="layer"
     id="layer1"
     transform="translate(70.207832,-101.80765)">
    <g
       transform="matrix(0.41544793,0,0,0.41544793,-0.18933447,17.099766)"
       id="layer1-6"
       inkscape:label="Layer 1"
       style="fill:#4bcbb2;fill-opacity:1">
      <path
         inkscape:export-ydpi="300"
         inkscape:export-xdpi="300"
         id="path1452"
         d="m -152.18333,203.89531 a 59.250995,61.436816 0 0 0 -16.35403,2.45928 v 31.04772 H 271.34688 V 206.4533 a 59.250995,61.436816 0 0 0 -15.76131,-2.33371 59.250995,61.436816 0 0 0 -37.44473,13.87046 59.250995,61.436816 0 0 1 -30.79967,9.02323 59.250995,61.436816 0 0 1 -28.98376,-7.95404 59.250995,61.436816 0 0 1 0.31523,0.31316 59.250995,61.436816 0 0 0 -38.92786,-15.25281 59.250995,61.436816 0 0 0 -37.444228,13.87046 59.250995,61.436816 0 0 1 -30.79967,9.02323 59.250995,61.436816 0 0 1 -28.98478,-7.95404 59.250995,61.436816 0 0 1 0.56739,0.56431 59.250995,61.436816 0 0 0 -39.21103,-15.50396 59.250995,61.436816 0 0 0 -37.44373,13.87046 59.250995,61.436816 0 0 1 -30.799668,9.02323 59.250995,61.436816 0 0 1 -28.984264,-7.953 59.250995,61.436816 0 0 0 -38.82813,-15.16497 z m 238.792142,10.41848 a 59.250995,61.436816 0 0 0 -4.72736,3.56671 59.250995,61.436816 0 0 0 0.20361,-0.11472 59.250995,61.436816 0 0 1 4.52375,-3.45199 z m -135.84184,5.3e-4 a 59.250995,61.436816 0 0 0 -4.7258,3.56619 59.250995,61.436816 0 0 0 0.20256,-0.11472 59.250995,61.436816 0 0 1 4.52324,-3.45147 z m 271.699198,0 a 59.250995,61.436816 0 0 0 -4.72634,3.56619 59.250995,61.436816 0 0 0 0.2036,-0.11472 59.250995,61.436816 0 0 1 4.52274,-3.45147 z"
         style="opacity:1;fill:#4bcbb2;fill-opacity:1;stroke:none;stroke-width:0.26458341;stroke-linecap:round;stroke-linejoin:round;stroke-miterlimit:4;stroke-dasharray:none;paint-order:markers stroke fill"
         inkscape:connector-curvature="0" />
    </g>
  </g>
</svg>
