<?xml version="1.0" encoding="UTF-8" standalone="no"?>
<!-- Created with Inkscape (http://www.inkscape.org/) -->

<svg
   xmlns:dc="http://purl.org/dc/elements/1.1/"
   xmlns:cc="http://creativecommons.org/ns#"
   xmlns:rdf="http://www.w3.org/1999/02/22-rdf-syntax-ns#"
   xmlns:svg="http://www.w3.org/2000/svg"
   xmlns="http://www.w3.org/2000/svg"
   xmlns:sodipodi="http://sodipodi.sourceforge.net/DTD/sodipodi-0.dtd"
   xmlns:inkscape="http://www.inkscape.org/namespaces/inkscape"
   width="162.52975mm"
   height="162.52975mm"
   viewBox="0 0 162.52976 162.52976"
   version="1.1"
   id="svg1875"
   inkscape:version="0.92.3 (2405546, 2018-03-11)"
   sodipodi:docname="logo.svg">
  <defs
     id="defs1869" />
  <sodipodi:namedview
     id="base"
     pagecolor="#ffffff"
     bordercolor="#666666"
     borderopacity="1.0"
     inkscape:pageopacity="0.0"
     inkscape:pageshadow="2"
     inkscape:zoom="0.35"
     inkscape:cx="-22.85715"
     inkscape:cy="310.00001"
     inkscape:document-units="mm"
     inkscape:current-layer="layer1"
     showgrid="false"
     inkscape:window-width="1366"
     inkscape:window-height="718"
     inkscape:window-x="0"
     inkscape:window-y="24"
     inkscape:window-maximized="1" />
  <metadata
     id="metadata1872">
    <rdf:RDF>
      <cc:Work
         rdf:about="">
        <dc:format>image/svg+xml</dc:format>
        <dc:type
           rdf:resource="http://purl.org/dc/dcmitype/StillImage" />
        <dc:title></dc:title>
      </cc:Work>
    </rdf:RDF>
  </metadata>
  <g
     inkscape:label="Layer 1"
     inkscape:groupmode="layer"
     id="layer1"
     transform="translate(-19.276787,-68.324409)">
    <rect
       style="opacity:1;fill:#ffffff;fill-opacity:1;stroke:none;stroke-width:0.26458332;stroke-linecap:round;stroke-linejoin:round;stroke-miterlimit:4;stroke-dasharray:none;stroke-opacity:1;paint-order:markers stroke fill"
       id="rect816"
       width="162.52975"
       height="162.52975"
       x="19.276787"
       y="68.324409" />
    <path
       inkscape:connector-curvature="0"
       id="path2034"
       d="M 96.402706,84.316317 46.34656,104.40345 c 0,0 -0.31014,13.43933 0.76968,23.48135 -0.1252,-0.46977 30.71181,17.04461 35.02598,21.7409 -0.5228,-0.10425 3.50251,24.47962 6.06859,38.97154 C 76.61665,179.89998 70.25837,164.97898 67.66346,149.82161 L 48.63802,137.99899 c 0,0 1.57107,40.55767 51.008377,76.86326 L 97.482165,137.46138 65.0393,119.85263 v -10.50596 l 14.51972,-5.71775 0.77493,11.58578 16.068666,-3.70855 z m 8.957074,0 c 0,0 -3.86442,130.167393 -4.01369,130.081193 60.56072,-41.86725 53.14497,-110.30384 53.14497,-110.30384 z m 16.58371,20.255723 19.18949,6.25986 c -0.6462,33.92304 -9.59949,51.48563 -28.51096,78.84962 0,0 10.76097,-70.88041 9.32147,-85.10948 z"
       style="fill:#ff5555;fill-opacity:1;stroke:none;stroke-width:0.30898365px;stroke-linecap:butt;stroke-linejoin:miter;stroke-opacity:1" />
  </g>
</svg>
